<svg xmlns="http://www.w3.org/2000/svg" version="1.1" xmlns:xlink="http://www.w3.org/1999/xlink" width="512" height="512" x="0" y="0" viewBox="0 0 682.667 682.667" style="enable-background:new 0 0 512 512" xml:space="preserve"><g><defs><clipPath id="a" clipPathUnits="userSpaceOnUse"><path d="M0 512h512V0H0Z" fill="#ffffff" opacity="1" data-original="#000000"></path></clipPath></defs><g clip-path="url(#a)" transform="matrix(1.33333 0 0 -1.33333 0 682.667)"><path d="M0 0c11.906 22.59 39.633 38.053 66.859 38.053h7.617v-72.16c30.886-21.795 54.449-50.087 67.337-82.213 10.348-2.538 20.697-5.076 31.043-7.607V-221.983c-10.349-2.539-20.702-5.078-31.051-7.614-8.241-20.531-20.847-39.494-36.93-56.199-3.012-12.558-6.021-25.116-9.027-37.664-4.828-20.158-9.668-40.329-14.496-60.487H18.347c-3.159 13.193-6.325 26.392-9.488 39.59-26.868-8.761-56.26-13.59-87.063-13.59-33.792 0-65.887 5.81-94.818 16.247-3.376-14.083-6.754-28.168-10.126-42.247H-246.153c-4.827 20.158-9.668 40.332-14.495 60.487-4.049 16.902-8.113 33.819-12.158 50.731-23.075 28.79-36.457 63.034-36.457 99.782 0 81.878 66.434 151.333 158.499 175.694" style="stroke-width:30;stroke-linecap:round;stroke-linejoin:round;stroke-miterlimit:22.926;stroke-dasharray:none;stroke-opacity:1" transform="translate(324.204 400.947)" fill="none" stroke="#ffffff" stroke-width="30" stroke-linecap="round" stroke-linejoin="round" stroke-miterlimit="22.926" stroke-dasharray="none" stroke-opacity="" data-original="#000000" opacity="1"></path><path d="M0 0c20.97 13.781 34.861 37.518 34.861 64.394 0 42.41-34.59 77-77 77s-77-34.59-77-77c0-29.158 16.349-54.619 40.348-67.684" style="stroke-width:30;stroke-linecap:round;stroke-linejoin:round;stroke-miterlimit:22.926;stroke-dasharray:none;stroke-opacity:1" transform="translate(291.237 353.606)" fill="none" stroke="#ffffff" stroke-width="30" stroke-linecap="round" stroke-linejoin="round" stroke-miterlimit="22.926" stroke-dasharray="none" stroke-opacity="" data-original="#000000" opacity="1"></path><path d="M0 0c22.541 8.585 47.501 13.063 72.825 13.063 25.339 0 50.315-4.483 72.866-13.079" style="stroke-width:30;stroke-linecap:round;stroke-linejoin:round;stroke-miterlimit:22.926;stroke-dasharray:none;stroke-opacity:1" transform="translate(173.273 338.938)" fill="none" stroke="#ffffff" stroke-width="30" stroke-linecap="round" stroke-linejoin="round" stroke-miterlimit="22.926" stroke-dasharray="none" stroke-opacity="" data-original="#000000" opacity="1"></path><path d="M0 0c8.262 0 15 6.738 15 15S8.262 30 0 30s-15-6.738-15-15S-8.262 0 0 0" style="fill-opacity:1;fill-rule:evenodd;stroke:none" transform="translate(387.06 257)" fill="#ffffff" data-original="#000000" opacity="1"></path></g></g></svg>